<svg xmlns="http://www.w3.org/2000/svg" viewBox="-330.0 -259.5 660.0 418.7" width="660" height="419" fill="none" role="img" aria-label="Gaussian-process surrogate: mean surface with upper and lower confidence envelopes; Bayesian optimization converging to the global optimum">
<defs><filter id="g" x="-80%" y="-80%" width="260%" height="260%"><feGaussianBlur stdDeviation="2.2" result="b"/><feMerge><feMergeNode in="b"/><feMergeNode in="SourceGraphic"/></feMerge></filter><marker id="ah" markerWidth="7" markerHeight="7" refX="5" refY="3" orient="auto"><path d="M0,0 L6,3 L0,6 Z" fill="#64748B"/></marker></defs>
<path d="M0.0,-116.0 L300.0,0.0 L0.0,116.0 L-300.0,0.0 Z" fill="none" stroke="#64748B" stroke-opacity="0.30" stroke-dasharray="4 4" stroke-width="1"/>
<g stroke="#A78BFA" stroke-opacity="0.28" stroke-width="0.5" fill="none" stroke-linejoin="round">
<path d="M0.0,-92.7 L-18.8,-89.2 L-37.5,-86.7 L-56.2,-84.2 L-75.0,-80.1 L-93.8,-73.4 L-112.5,-64.1 L-131.2,-54.9 L-150.0,-46.1 L-168.8,-38.3 L-187.5,-31.4 L-206.2,-24.9 L-225.0,-18.3 L-243.8,-11.2 L-262.5,-3.5 L-281.2,4.8 L-300.0,13.3"/>
<path d="M18.8,-88.5 L0.0,-87.2 L-18.8,-87.6 L-37.5,-88.2 L-56.2,-86.1 L-75.0,-79.3 L-93.8,-67.9 L-112.5,-54.4 L-131.2,-43.0 L-150.0,-33.6 L-168.8,-26.0 L-187.5,-19.4 L-206.2,-13.0 L-225.0,-5.9 L-243.8,2.0 L-262.5,10.5 L-281.2,19.3"/>
<path d="M37.5,-84.4 L18.8,-85.4 L0.0,-89.2 L-18.8,-93.2 L-37.5,-93.3 L-56.2,-86.3 L-75.0,-72.6 L-93.8,-55.7 L-112.5,-40.1 L-131.2,-28.8 L-150.0,-20.3 L-168.8,-13.7 L-187.5,-7.5 L-206.2,-0.7 L-225.0,7.7 L-243.8,16.6 L-262.5,25.7"/>
<path d="M56.2,-79.6 L37.5,-82.3 L18.8,-88.5 L0.0,-95.0 L-18.8,-96.7 L-37.5,-89.8 L-56.2,-74.5 L-75.0,-55.2 L-93.8,-36.8 L-112.5,-23.0 L-131.2,-14.0 L-150.0,-7.2 L-168.8,-1.4 L-187.5,4.8 L-206.2,14.1 L-225.0,23.4 L-243.8,32.6"/>
<path d="M75.0,-73.4 L56.2,-76.3 L37.5,-82.9 L18.8,-89.8 L0.0,-91.9 L-18.8,-85.1 L-37.5,-69.9 L-56.2,-50.5 L-75.0,-32.0 L-93.8,-16.7 L-112.5,-6.7 L-131.2,0.3 L-150.0,6.5 L-168.8,13.4 L-187.5,21.9 L-206.2,31.0 L-225.0,40.1"/>
<path d="M93.8,-65.6 L75.0,-67.3 L56.2,-72.0 L37.5,-77.1 L18.8,-78.1 L0.0,-71.7 L-18.8,-58.4 L-37.5,-41.5 L-56.2,-25.0 L-75.0,-10.9 L-93.8,0.7 L-112.5,8.0 L-131.2,14.7 L-150.0,22.1 L-168.8,30.3 L-187.5,39.1 L-206.2,48.1"/>
<path d="M112.5,-57.2 L93.8,-56.5 L75.0,-58.1 L56.2,-60.1 L37.5,-59.3 L18.8,-53.5 L0.0,-43.1 L-18.8,-30.3 L-37.5,-17.4 L-56.2,-5.5 L-75.0,5.1 L-93.8,14.6 L-112.5,21.8 L-131.2,29.6 L-150.0,38.2 L-168.8,47.2 L-187.5,56.3"/>
<path d="M131.2,-49.8 L112.5,-46.3 L93.8,-44.2 L75.0,-43.1 L56.2,-40.5 L37.5,-35.4 L18.8,-28.0 L0.0,-20.0 L-18.8,-11.4 L-37.5,-1.9 L-56.2,7.0 L-75.0,16.4 L-93.8,24.4 L-112.5,33.9 L-131.2,44.1 L-150.0,54.3 L-168.8,64.2"/>
<path d="M150.0,-42.9 L131.2,-38.0 L112.5,-33.5 L93.8,-28.8 L75.0,-25.0 L56.2,-20.5 L37.5,-15.5 L18.8,-11.0 L0.0,-6.6 L-18.8,-1.4 L-37.5,4.8 L-56.2,11.4 L-75.0,20.2 L-93.8,31.9 L-112.5,44.9 L-131.2,57.5 L-150.0,69.0"/>
<path d="M168.8,-36.4 L150.0,-31.0 L131.2,-25.5 L112.5,-19.8 L93.8,-13.7 L75.0,-9.1 L56.2,-6.2 L37.5,-5.0 L18.8,-5.1 L0.0,-5.1 L-18.8,-3.6 L-37.5,0.5 L-56.2,10.6 L-75.0,26.0 L-93.8,43.3 L-112.5,59.5 L-131.2,73.4"/>
<path d="M187.5,-30.2 L168.8,-24.7 L150.0,-19.0 L131.2,-13.1 L112.5,-7.1 L93.8,-1.8 L75.0,0.8 L56.2,-1.6 L37.5,-7.5 L18.8,-14.7 L0.0,-17.7 L-18.8,-14.1 L-37.5,-2.7 L-56.2,17.7 L-75.0,40.4 L-93.8,61.0 L-112.5,77.8"/>
<path d="M206.2,-23.9 L187.5,-18.5 L168.8,-13.0 L150.0,-7.4 L131.2,-1.7 L112.5,3.0 L93.8,4.6 L75.0,-0.4 L56.2,-11.9 L37.5,-24.4 L18.8,-31.3 L0.0,-26.2 L-18.8,-12.2 L-37.5,11.9 L-56.2,39.0 L-75.0,63.4 L-93.8,82.7"/>
<path d="M225.0,-17.2 L206.2,-12.0 L187.5,-6.8 L168.8,-1.8 L150.0,3.6 L131.2,8.4 L112.5,9.2 L93.8,3.0 L75.0,-11.1 L56.2,-26.6 L37.5,-35.7 L18.8,-32.5 L0.0,-14.4 L-18.8,12.8 L-37.5,42.2 L-56.2,68.5 L-75.0,89.2"/>
<path d="M243.8,-10.0 L225.0,-4.8 L206.2,0.3 L187.5,5.1 L168.8,10.5 L150.0,15.6 L131.2,16.6 L112.5,11.3 L93.8,-2.3 L75.0,-16.9 L56.2,-26.0 L37.5,-23.5 L18.8,-5.8 L0.0,21.6 L-18.8,51.4 L-37.5,77.4 L-56.2,97.6"/>
<path d="M262.5,-2.3 L243.8,3.1 L225.0,8.5 L206.2,14.1 L187.5,19.8 L168.8,24.8 L150.0,26.8 L131.2,24.1 L112.5,13.9 L93.8,2.9 L75.0,-4.0 L56.2,-0.5 L37.5,15.2 L18.8,39.2 L0.0,65.5 L-18.8,89.2 L-37.5,107.8"/>
<path d="M281.2,5.9 L262.5,11.5 L243.8,17.3 L225.0,23.4 L206.2,29.6 L187.5,35.2 L168.8,38.7 L150.0,39.1 L131.2,34.0 L112.5,27.6 L93.8,24.7 L75.0,29.3 L56.2,42.6 L37.5,61.9 L18.8,83.1 L0.0,102.5 L-18.8,118.5"/>
<path d="M300.0,14.3 L281.2,20.2 L262.5,26.4 L243.8,32.8 L225.0,39.4 L206.2,45.7 L187.5,50.9 L168.8,54.2 L150.0,53.9 L131.2,52.4 L112.5,53.3 L93.8,58.9 L75.0,69.9 L56.2,84.8 L37.5,100.9 L18.8,116.1 L0.0,129.2"/>
<path d="M0.0,-92.7 L18.8,-88.5 L37.5,-84.4 L56.2,-79.6 L75.0,-73.4 L93.8,-65.6 L112.5,-57.2 L131.2,-49.8 L150.0,-42.9 L168.8,-36.4 L187.5,-30.2 L206.2,-23.9 L225.0,-17.2 L243.8,-10.0 L262.5,-2.3 L281.2,5.9 L300.0,14.3"/>
<path d="M-18.8,-89.2 L0.0,-87.2 L18.8,-85.4 L37.5,-82.3 L56.2,-76.3 L75.0,-67.3 L93.8,-56.5 L112.5,-46.3 L131.2,-38.0 L150.0,-31.0 L168.8,-24.7 L187.5,-18.5 L206.2,-12.0 L225.0,-4.8 L243.8,3.1 L262.5,11.5 L281.2,20.2"/>
<path d="M-37.5,-86.7 L-18.8,-87.6 L0.0,-89.2 L18.8,-88.5 L37.5,-82.9 L56.2,-72.0 L75.0,-58.1 L93.8,-44.2 L112.5,-33.5 L131.2,-25.5 L150.0,-19.0 L168.8,-13.0 L187.5,-6.8 L206.2,0.3 L225.0,8.5 L243.8,17.3 L262.5,26.4"/>
<path d="M-56.2,-84.2 L-37.5,-88.2 L-18.8,-93.2 L0.0,-95.0 L18.8,-89.8 L37.5,-77.1 L56.2,-60.1 L75.0,-43.1 L93.8,-28.8 L112.5,-19.8 L131.2,-13.1 L150.0,-7.4 L168.8,-1.8 L187.5,5.1 L206.2,14.1 L225.0,23.4 L243.8,32.8"/>
<path d="M-75.0,-80.1 L-56.2,-86.1 L-37.5,-93.3 L-18.8,-96.7 L0.0,-91.9 L18.8,-78.1 L37.5,-59.3 L56.2,-40.5 L75.0,-25.0 L93.8,-13.7 L112.5,-7.1 L131.2,-1.7 L150.0,3.6 L168.8,10.5 L187.5,19.8 L206.2,29.6 L225.0,39.4"/>
<path d="M-93.8,-73.4 L-75.0,-79.3 L-56.2,-86.3 L-37.5,-89.8 L-18.8,-85.1 L0.0,-71.7 L18.8,-53.5 L37.5,-35.4 L56.2,-20.5 L75.0,-9.1 L93.8,-1.8 L112.5,3.0 L131.2,8.4 L150.0,15.6 L168.8,24.8 L187.5,35.2 L206.2,45.7"/>
<path d="M-112.5,-64.1 L-93.8,-67.9 L-75.0,-72.6 L-56.2,-74.5 L-37.5,-69.9 L-18.8,-58.4 L0.0,-43.1 L18.8,-28.0 L37.5,-15.5 L56.2,-6.2 L75.0,0.8 L93.8,4.6 L112.5,9.2 L131.2,16.6 L150.0,26.8 L168.8,38.7 L187.5,50.9"/>
<path d="M-131.2,-54.9 L-112.5,-54.4 L-93.8,-55.7 L-75.0,-55.2 L-56.2,-50.5 L-37.5,-41.5 L-18.8,-30.3 L0.0,-20.0 L18.8,-11.0 L37.5,-5.0 L56.2,-1.6 L75.0,-0.4 L93.8,3.0 L112.5,11.3 L131.2,24.1 L150.0,39.1 L168.8,54.2"/>
<path d="M-150.0,-46.1 L-131.2,-43.0 L-112.5,-40.1 L-93.8,-36.8 L-75.0,-32.0 L-56.2,-25.0 L-37.5,-17.4 L-18.8,-11.4 L0.0,-6.6 L18.8,-5.1 L37.5,-7.5 L56.2,-11.9 L75.0,-11.1 L93.8,-2.3 L112.5,13.9 L131.2,34.0 L150.0,53.9"/>
<path d="M-168.8,-38.3 L-150.0,-33.6 L-131.2,-28.8 L-112.5,-23.0 L-93.8,-16.7 L-75.0,-10.9 L-56.2,-5.5 L-37.5,-1.9 L-18.8,-1.4 L0.0,-5.1 L18.8,-14.7 L37.5,-24.4 L56.2,-26.6 L75.0,-16.9 L93.8,2.9 L112.5,27.6 L131.2,52.4"/>
<path d="M-187.5,-31.4 L-168.8,-26.0 L-150.0,-20.3 L-131.2,-14.0 L-112.5,-6.7 L-93.8,0.7 L-75.0,5.1 L-56.2,7.0 L-37.5,4.8 L-18.8,-3.6 L0.0,-17.7 L18.8,-31.3 L37.5,-35.7 L56.2,-26.0 L75.0,-4.0 L93.8,24.7 L112.5,53.3"/>
<path d="M-206.2,-24.9 L-187.5,-19.4 L-168.8,-13.7 L-150.0,-7.2 L-131.2,0.3 L-112.5,8.0 L-93.8,14.6 L-75.0,16.4 L-56.2,11.4 L-37.5,0.5 L-18.8,-14.1 L0.0,-26.2 L18.8,-32.5 L37.5,-23.5 L56.2,-0.5 L75.0,29.3 L93.8,58.9"/>
<path d="M-225.0,-18.3 L-206.2,-13.0 L-187.5,-7.5 L-168.8,-1.4 L-150.0,6.5 L-131.2,14.7 L-112.5,21.8 L-93.8,24.4 L-75.0,20.2 L-56.2,10.6 L-37.5,-2.7 L-18.8,-12.2 L0.0,-14.4 L18.8,-5.8 L37.5,15.2 L56.2,42.6 L75.0,69.9"/>
<path d="M-243.8,-11.2 L-225.0,-5.9 L-206.2,-0.7 L-187.5,4.8 L-168.8,13.4 L-150.0,22.1 L-131.2,29.6 L-112.5,33.9 L-93.8,31.9 L-75.0,26.0 L-56.2,17.7 L-37.5,11.9 L-18.8,12.8 L0.0,21.6 L18.8,39.2 L37.5,61.9 L56.2,84.8"/>
<path d="M-262.5,-3.5 L-243.8,2.0 L-225.0,7.7 L-206.2,14.1 L-187.5,21.9 L-168.8,30.3 L-150.0,38.2 L-131.2,44.1 L-112.5,44.9 L-93.8,43.3 L-75.0,40.4 L-56.2,39.0 L-37.5,42.2 L-18.8,51.4 L0.0,65.5 L18.8,83.1 L37.5,100.9"/>
<path d="M-281.2,4.8 L-262.5,10.5 L-243.8,16.6 L-225.0,23.4 L-206.2,31.0 L-187.5,39.1 L-168.8,47.2 L-150.0,54.3 L-131.2,57.5 L-112.5,59.5 L-93.8,61.0 L-75.0,63.4 L-56.2,68.5 L-37.5,77.4 L-18.8,89.2 L0.0,102.5 L18.8,116.1"/>
<path d="M-300.0,13.3 L-281.2,19.3 L-262.5,25.7 L-243.8,32.6 L-225.0,40.1 L-206.2,48.1 L-187.5,56.3 L-168.8,64.2 L-150.0,69.0 L-131.2,73.4 L-112.5,77.8 L-93.8,82.7 L-75.0,89.2 L-56.2,97.6 L-37.5,107.8 L-18.8,118.5 L0.0,129.2"/>
</g>
<g stroke="#0B1220" stroke-opacity="0.22" stroke-width="0.5" stroke-linejoin="round">
<path d="M0.0,-118.1 L18.8,-112.6 L0.0,-109.8 L-18.8,-113.3 Z" fill="#461163" fill-opacity="0.97"/>
<path d="M-18.8,-111.6 L0.0,-112.0 L-18.8,-112.3 L-37.5,-110.5 Z" fill="#2B758E" fill-opacity="0.97"/>
<path d="M-18.8,-113.3 L0.0,-109.8 L-18.8,-108.8 L-37.5,-109.5 Z" fill="#471F70" fill-opacity="0.97"/>
<path d="M0.0,-109.0 L18.8,-107.0 L0.0,-112.0 L-18.8,-111.6 Z" fill="#355F8C" fill-opacity="0.97"/>
<path d="M-18.8,-108.8 L0.0,-109.0 L-18.8,-111.6 L-37.5,-108.1 Z" fill="#3E4B89" fill-opacity="0.97"/>
<path d="M18.8,-112.6 L37.5,-107.3 L18.8,-106.7 L0.0,-109.8 Z" fill="#471B6C" fill-opacity="0.97"/>
<path d="M0.0,-112.0 L18.8,-105.5 L0.0,-106.0 L-18.8,-112.3 Z" fill="#27808E" fill-opacity="0.97"/>
<path d="M-37.5,-108.1 L-18.8,-111.6 L-37.5,-110.5 L-56.2,-104.9 Z" fill="#365C8C" fill-opacity="0.97"/>
<path d="M0.0,-109.8 L18.8,-106.7 L0.0,-109.0 L-18.8,-108.8 Z" fill="#45317C" fill-opacity="0.97"/>
<path d="M-37.5,-109.5 L-18.8,-108.8 L-37.5,-108.1 L-56.2,-105.8 Z" fill="#462F7C" fill-opacity="0.97"/>
<path d="M-37.5,-110.5 L-18.8,-112.3 L-37.5,-104.1 L-56.2,-102.5 Z" fill="#287D8E" fill-opacity="0.97"/>
<path d="M18.8,-106.7 L37.5,-102.5 L18.8,-107.0 L0.0,-109.0 Z" fill="#414184" fill-opacity="0.97"/>
<path d="M18.8,-107.0 L37.5,-100.3 L18.8,-105.5 L0.0,-112.0 Z" fill="#31688E" fill-opacity="0.97"/>
<path d="M-18.8,-112.3 L0.0,-106.0 L-18.8,-97.8 L-37.5,-104.1 Z" fill="#24898D" fill-opacity="0.97"/>
<path d="M-56.2,-105.8 L-37.5,-108.1 L-56.2,-104.9 L-75.0,-100.7 Z" fill="#423C82" fill-opacity="0.97"/>
<path d="M37.5,-107.3 L56.2,-101.5 L37.5,-102.5 L18.8,-106.7 Z" fill="#482474" fill-opacity="0.97"/>
<path d="M-56.2,-104.9 L-37.5,-110.5 L-56.2,-102.5 L-75.0,-97.2 Z" fill="#34628D" fill-opacity="0.97"/>
<path d="M37.5,-102.5 L56.2,-95.5 L37.5,-100.3 L18.8,-107.0 Z" fill="#3F4888" fill-opacity="0.97"/>
<path d="M-75.0,-100.7 L-56.2,-104.9 L-75.0,-97.2 L-93.8,-93.2 Z" fill="#414184" fill-opacity="0.97"/>
<path d="M18.8,-105.5 L37.5,-91.8 L18.8,-91.0 L0.0,-106.0 Z" fill="#2A798E" fill-opacity="0.97"/>
<path d="M56.2,-101.5 L75.0,-94.4 L56.2,-95.5 L37.5,-102.5 Z" fill="#482878" fill-opacity="0.97"/>
<path d="M37.5,-100.3 L56.2,-88.5 L37.5,-91.8 L18.8,-105.5 Z" fill="#34628D" fill-opacity="0.97"/>
<path d="M-56.2,-102.5 L-37.5,-104.1 L-56.2,-88.0 L-75.0,-88.0 Z" fill="#2D728E" fill-opacity="0.97"/>
<path d="M0.0,-106.0 L18.8,-91.0 L0.0,-83.1 L-18.8,-97.8 Z" fill="#27818E" fill-opacity="0.97"/>
<path d="M-75.0,-97.2 L-56.2,-102.5 L-75.0,-88.0 L-93.8,-85.2 Z" fill="#37598C" fill-opacity="0.97"/>
<path d="M-37.5,-104.1 L-18.8,-97.8 L-37.5,-81.5 L-56.2,-88.0 Z" fill="#287D8E" fill-opacity="0.97"/>
<path d="M56.2,-95.5 L75.0,-85.7 L56.2,-88.5 L37.5,-100.3 Z" fill="#404386" fill-opacity="0.97"/>
<path d="M75.0,-94.4 L93.8,-85.9 L75.0,-85.7 L56.2,-95.5 Z" fill="#482575" fill-opacity="0.97"/>
<path d="M-93.8,-93.2 L-75.0,-97.2 L-93.8,-85.2 L-112.5,-83.4 Z" fill="#433A81" fill-opacity="0.97"/>
<path d="M-18.8,-97.8 L0.0,-83.1 L-18.8,-68.3 L-37.5,-81.5 Z" fill="#2B758E" fill-opacity="0.97"/>
<path d="M56.2,-88.5 L75.0,-74.1 L56.2,-74.1 L37.5,-91.8 Z" fill="#3C4F8A" fill-opacity="0.97"/>
<path d="M37.5,-91.8 L56.2,-74.1 L37.5,-71.4 L18.8,-91.0 Z" fill="#34628D" fill-opacity="0.97"/>
<path d="M93.8,-85.9 L112.5,-76.8 L93.8,-74.4 L75.0,-85.7 Z" fill="#471D6E" fill-opacity="0.97"/>
<path d="M75.0,-85.7 L93.8,-74.4 L75.0,-74.1 L56.2,-88.5 Z" fill="#44357E" fill-opacity="0.97"/>
<path d="M-93.8,-85.2 L-75.0,-88.0 L-93.8,-70.7 L-112.5,-71.2 Z" fill="#3F4687" fill-opacity="0.97"/>
<path d="M-75.0,-88.0 L-56.2,-88.0 L-75.0,-68.2 L-93.8,-70.7 Z" fill="#37598C" fill-opacity="0.97"/>
<path d="M-112.5,-83.4 L-93.8,-85.2 L-112.5,-71.2 L-131.2,-72.5 Z" fill="#472C7A" fill-opacity="0.97"/>
<path d="M18.8,-91.0 L37.5,-71.4 L18.8,-63.7 L0.0,-83.1 Z" fill="#31688E" fill-opacity="0.97"/>
<path d="M-56.2,-88.0 L-37.5,-81.5 L-56.2,-61.6 L-75.0,-68.2 Z" fill="#34628D" fill-opacity="0.97"/>
<path d="M112.5,-76.8 L131.2,-67.7 L112.5,-63.2 L93.8,-74.4 Z" fill="#461364" fill-opacity="0.97"/>
<path d="M93.8,-74.4 L112.5,-63.2 L93.8,-59.9 L75.0,-74.1 Z" fill="#472273" fill-opacity="0.97"/>
<path d="M0.0,-83.1 L18.8,-63.7 L0.0,-51.6 L-18.8,-68.3 Z" fill="#35608D" fill-opacity="0.97"/>
<path d="M75.0,-74.1 L93.8,-59.9 L75.0,-56.8 L56.2,-74.1 Z" fill="#44357E" fill-opacity="0.97"/>
<path d="M-131.2,-72.5 L-112.5,-71.2 L-131.2,-58.0 L-150.0,-61.9 Z" fill="#471C6D" fill-opacity="0.97"/>
<path d="M-37.5,-81.5 L-18.8,-68.3 L-37.5,-50.5 L-56.2,-61.6 Z" fill="#365C8C" fill-opacity="0.97"/>
<path d="M56.2,-74.1 L75.0,-56.8 L56.2,-52.3 L37.5,-71.4 Z" fill="#404486" fill-opacity="0.97"/>
<path d="M-112.5,-71.2 L-93.8,-70.7 L-112.5,-54.4 L-131.2,-58.0 Z" fill="#472C7A" fill-opacity="0.97"/>
<path d="M131.2,-67.7 L150.0,-59.1 L131.2,-53.2 L112.5,-63.2 Z" fill="#450A5D" fill-opacity="0.97"/>
<path d="M-93.8,-70.7 L-75.0,-68.2 L-93.8,-49.8 L-112.5,-54.4 Z" fill="#433A81" fill-opacity="0.97"/>
<path d="M37.5,-71.4 L56.2,-52.3 L37.5,-45.1 L18.8,-63.7 Z" fill="#3E4989" fill-opacity="0.97"/>
<path d="M112.5,-63.2 L131.2,-53.2 L112.5,-47.8 L93.8,-59.9 Z" fill="#461364" fill-opacity="0.97"/>
<path d="M-75.0,-68.2 L-56.2,-61.6 L-75.0,-42.9 L-93.8,-49.8 Z" fill="#414185" fill-opacity="0.97"/>
<path d="M-150.0,-61.9 L-131.2,-58.0 L-150.0,-46.7 L-168.8,-52.5 Z" fill="#450F61" fill-opacity="0.97"/>
<path d="M150.0,-59.1 L168.8,-51.2 L150.0,-44.4 L131.2,-53.2 Z" fill="#440558" fill-opacity="0.97"/>
<path d="M-18.8,-68.3 L0.0,-51.6 L-18.8,-37.5 L-37.5,-50.5 Z" fill="#3D4C89" fill-opacity="0.97"/>
<path d="M93.8,-59.9 L112.5,-47.8 L93.8,-42.6 L75.0,-56.8 Z" fill="#471D6E" fill-opacity="0.97"/>
<path d="M-131.2,-58.0 L-112.5,-54.4 L-131.2,-41.1 L-150.0,-46.7 Z" fill="#461769" fill-opacity="0.97"/>
<path d="M18.8,-63.7 L37.5,-45.1 L18.8,-35.7 L0.0,-51.6 Z" fill="#404386" fill-opacity="0.97"/>
<path d="M-56.2,-61.6 L-37.5,-50.5 L-56.2,-34.0 L-75.0,-42.9 Z" fill="#423E83" fill-opacity="0.97"/>
<path d="M75.0,-56.8 L93.8,-42.6 L75.0,-36.9 L56.2,-52.3 Z" fill="#482676" fill-opacity="0.97"/>
<path d="M131.2,-53.2 L150.0,-44.4 L131.2,-38.0 L112.5,-47.8 Z" fill="#45095B" fill-opacity="0.97"/>
<path d="M-168.8,-52.5 L-150.0,-46.7 L-168.8,-37.4 L-187.5,-44.2 Z" fill="#450759" fill-opacity="0.97"/>
<path d="M-112.5,-54.4 L-93.8,-49.8 L-112.5,-35.1 L-131.2,-41.1 Z" fill="#471F70" fill-opacity="0.97"/>
<path d="M168.8,-51.2 L187.5,-43.6 L168.8,-36.6 L150.0,-44.4 Z" fill="#440355" fill-opacity="0.97"/>
<path d="M56.2,-52.3 L75.0,-36.9 L56.2,-30.4 L37.5,-45.1 Z" fill="#472A79" fill-opacity="0.97"/>
<path d="M112.5,-47.8 L131.2,-38.0 L112.5,-31.7 L93.8,-42.6 Z" fill="#450E60" fill-opacity="0.97"/>
<path d="M-150.0,-46.7 L-131.2,-41.1 L-150.0,-30.8 L-168.8,-37.4 Z" fill="#450A5D" fill-opacity="0.97"/>
<path d="M-93.8,-49.8 L-75.0,-42.9 L-93.8,-28.2 L-112.5,-35.1 Z" fill="#472373" fill-opacity="0.97"/>
<path d="M0.0,-51.6 L18.8,-35.7 L0.0,-25.8 L-18.8,-37.5 Z" fill="#44367F" fill-opacity="0.97"/>
<path d="M18.8,-37.2 L37.5,-41.0 L18.8,-37.9 L0.0,-33.5 Z" fill="#95D44B" fill-opacity="0.97"/>
<path d="M150.0,-44.4 L168.8,-36.6 L150.0,-29.7 L131.2,-38.0 Z" fill="#440457" fill-opacity="0.97"/>
<path d="M-187.5,-44.2 L-168.8,-37.4 L-187.5,-29.4 L-206.2,-36.4 Z" fill="#440356" fill-opacity="0.97"/>
<path d="M-37.5,-50.5 L-18.8,-37.5 L-37.5,-24.4 L-56.2,-34.0 Z" fill="#45337D" fill-opacity="0.97"/>
<path d="M187.5,-43.6 L206.2,-36.3 L187.5,-29.1 L168.8,-36.6 Z" fill="#440254" fill-opacity="0.97"/>
<path d="M37.5,-31.0 L56.2,-32.8 L37.5,-41.0 L18.8,-37.2 Z" fill="#4FC16A" fill-opacity="0.97"/>
<path d="M37.5,-41.0 L56.2,-32.5 L37.5,-29.2 L18.8,-37.9 Z" fill="#D8E032" fill-opacity="0.97"/>
<path d="M93.8,-42.6 L112.5,-31.7 L93.8,-25.6 L75.0,-36.9 Z" fill="#461364" fill-opacity="0.97"/>
<path d="M37.5,-45.1 L56.2,-30.4 L37.5,-23.6 L18.8,-35.7 Z" fill="#482979" fill-opacity="0.97"/>
<path d="M-131.2,-41.1 L-112.5,-35.1 L-131.2,-24.1 L-150.0,-30.8 Z" fill="#450E60" fill-opacity="0.97"/>
<path d="M56.2,-32.8 L75.0,-24.4 L56.2,-32.5 L37.5,-41.0 Z" fill="#64CA5E" fill-opacity="0.97"/>
<path d="M-75.0,-42.9 L-56.2,-34.0 L-75.0,-20.6 L-93.8,-28.2 Z" fill="#472272" fill-opacity="0.97"/>
<path d="M131.2,-38.0 L150.0,-29.7 L131.2,-23.0 L112.5,-31.7 Z" fill="#450659" fill-opacity="0.97"/>
<path d="M-168.8,-37.4 L-150.0,-30.8 L-168.8,-22.3 L-187.5,-29.4 Z" fill="#440457" fill-opacity="0.97"/>
<path d="M168.8,-36.6 L187.5,-29.1 L168.8,-22.1 L150.0,-29.7 Z" fill="#440255" fill-opacity="0.97"/>
<path d="M0.0,-25.6 L18.8,-37.2 L0.0,-33.5 L-18.8,-21.0 Z" fill="#33B57A" fill-opacity="0.97"/>
<path d="M18.8,-22.9 L37.5,-31.0 L18.8,-37.2 L0.0,-25.6 Z" fill="#24A485" fill-opacity="0.97"/>
<path d="M-206.2,-36.4 L-187.5,-29.4 L-206.2,-21.8 L-225.0,-29.1 Z" fill="#440255" fill-opacity="0.97"/>
<path d="M206.2,-36.3 L225.0,-29.0 L206.2,-21.8 L187.5,-29.1 Z" fill="#440154" fill-opacity="0.97"/>
<path d="M75.0,-36.9 L93.8,-25.6 L75.0,-19.9 L56.2,-30.4 Z" fill="#461768" fill-opacity="0.97"/>
<path d="M0.0,-33.5 L18.8,-37.9 L0.0,-21.4 L-18.8,-18.3 Z" fill="#74CE56" fill-opacity="0.97"/>
<path d="M-112.5,-35.1 L-93.8,-28.2 L-112.5,-17.1 L-131.2,-24.1 Z" fill="#461062" fill-opacity="0.97"/>
<path d="M-18.8,-37.5 L0.0,-25.8 L-18.8,-16.8 L-37.5,-24.4 Z" fill="#482878" fill-opacity="0.97"/>
<path d="M56.2,-20.2 L75.0,-19.2 L56.2,-32.8 L37.5,-31.0 Z" fill="#209B89" fill-opacity="0.97"/>
<path d="M18.8,-35.7 L37.5,-23.6 L18.8,-17.5 L0.0,-25.8 Z" fill="#482777" fill-opacity="0.97"/>
<path d="M18.8,-37.9 L37.5,-29.2 L18.8,-12.9 L0.0,-21.4 Z" fill="#B6DA3F" fill-opacity="0.97"/>
<path d="M112.5,-31.7 L131.2,-23.0 L112.5,-16.9 L93.8,-25.6 Z" fill="#450A5C" fill-opacity="0.97"/>
<path d="M-56.2,-34.0 L-37.5,-24.4 L-56.2,-13.7 L-75.0,-20.6 Z" fill="#471E6F" fill-opacity="0.97"/>
<path d="M-150.0,-30.8 L-131.2,-24.1 L-150.0,-15.3 L-168.8,-22.3 Z" fill="#440658" fill-opacity="0.97"/>
<path d="M37.5,-16.9 L56.2,-20.2 L37.5,-31.0 L18.8,-22.9 Z" fill="#26828E" fill-opacity="0.97"/>
<path d="M150.0,-29.7 L168.8,-22.1 L150.0,-15.4 L131.2,-23.0 Z" fill="#440456" fill-opacity="0.97"/>
<path d="M56.2,-30.4 L75.0,-19.9 L56.2,-15.5 L37.5,-23.6 Z" fill="#471C6D" fill-opacity="0.97"/>
<path d="M-187.5,-29.4 L-168.8,-22.3 L-187.5,-14.7 L-206.2,-21.8 Z" fill="#440255" fill-opacity="0.97"/>
<path d="M187.5,-29.1 L206.2,-21.8 L187.5,-14.7 L168.8,-22.1 Z" fill="#440255" fill-opacity="0.97"/>
<path d="M75.0,-19.2 L93.8,-11.2 L75.0,-24.4 L56.2,-32.8 Z" fill="#24A386" fill-opacity="0.97"/>
<path d="M-225.0,-29.1 L-206.2,-21.8 L-225.0,-14.5 L-243.8,-21.8 Z" fill="#440154" fill-opacity="0.97"/>
<path d="M225.0,-29.0 L243.8,-21.8 L225.0,-14.6 L206.2,-21.8 Z" fill="#440154" fill-opacity="0.97"/>
<path d="M56.2,-32.5 L75.0,-12.1 L56.2,-8.2 L37.5,-29.2 Z" fill="#74CE56" fill-opacity="0.97"/>
<path d="M-18.8,-21.0 L0.0,-33.5 L-18.8,-18.3 L-37.5,-7.8 Z" fill="#2FB07D" fill-opacity="0.97"/>
<path d="M-93.8,-28.2 L-75.0,-20.6 L-93.8,-10.3 L-112.5,-17.1 Z" fill="#461162" fill-opacity="0.97"/>
<path d="M0.0,-14.2 L18.8,-22.9 L0.0,-25.6 L-18.8,-13.1 Z" fill="#2A798E" fill-opacity="0.97"/>
<path d="M75.0,-24.4 L93.8,-6.5 L75.0,-12.1 L56.2,-32.5 Z" fill="#44BD70" fill-opacity="0.97"/>
<path d="M93.8,-25.6 L112.5,-16.9 L93.8,-12.3 L75.0,-19.9 Z" fill="#450F61" fill-opacity="0.97"/>
<path d="M0.0,-25.8 L18.8,-17.5 L0.0,-12.9 L-18.8,-16.8 Z" fill="#482676" fill-opacity="0.97"/>
<path d="M37.5,-23.6 L56.2,-15.5 L37.5,-13.3 L18.8,-17.5 Z" fill="#482474" fill-opacity="0.97"/>
<path d="M18.8,-13.3 L37.5,-16.9 L18.8,-22.9 L0.0,-14.2 Z" fill="#34628D" fill-opacity="0.97"/>
<path d="M-18.8,-13.1 L0.0,-25.6 L-18.8,-21.0 L-37.5,-7.4 Z" fill="#25868D" fill-opacity="0.97"/>
<path d="M131.2,-23.0 L150.0,-15.4 L131.2,-9.6 L112.5,-16.9 Z" fill="#450759" fill-opacity="0.97"/>
<path d="M-131.2,-24.1 L-112.5,-17.1 L-131.2,-8.3 L-150.0,-15.3 Z" fill="#450759" fill-opacity="0.97"/>
<path d="M-37.5,-24.4 L-18.8,-16.8 L-37.5,-9.2 L-56.2,-13.7 Z" fill="#471F6F" fill-opacity="0.97"/>
<path d="M168.8,-22.1 L187.5,-14.7 L168.8,-8.1 L150.0,-15.4 Z" fill="#440356" fill-opacity="0.97"/>
<path d="M-168.8,-22.3 L-150.0,-15.3 L-168.8,-7.5 L-187.5,-14.7 Z" fill="#440255" fill-opacity="0.97"/>
<path d="M56.2,-11.8 L75.0,-10.6 L56.2,-20.2 L37.5,-16.9 Z" fill="#365D8C" fill-opacity="0.97"/>
<path d="M206.2,-21.8 L225.0,-14.6 L206.2,-7.5 L187.5,-14.7 Z" fill="#440154" fill-opacity="0.97"/>
<path d="M-206.2,-21.8 L-187.5,-14.7 L-206.2,-7.3 L-225.0,-14.5 Z" fill="#440154" fill-opacity="0.97"/>
<path d="M243.8,-21.8 L262.5,-14.5 L243.8,-7.3 L225.0,-14.6 Z" fill="#440154" fill-opacity="0.97"/>
<path d="M-243.8,-21.8 L-225.0,-14.5 L-243.8,-7.3 L-262.5,-14.5 Z" fill="#440154" fill-opacity="0.97"/>
<path d="M75.0,-19.9 L93.8,-12.3 L75.0,-10.2 L56.2,-15.5 Z" fill="#47196B" fill-opacity="0.97"/>
<path d="M75.0,-10.6 L93.8,-7.0 L75.0,-19.2 L56.2,-20.2 Z" fill="#2F6E8E" fill-opacity="0.97"/>
<path d="M18.8,-17.5 L37.5,-13.3 L18.8,-13.3 L0.0,-12.9 Z" fill="#45317C" fill-opacity="0.97"/>
<path d="M37.5,-13.3 L56.2,-11.8 L37.5,-16.9 L18.8,-13.3 Z" fill="#3F4787" fill-opacity="0.97"/>
<path d="M56.2,-15.5 L75.0,-10.2 L56.2,-11.8 L37.5,-13.3 Z" fill="#472C7A" fill-opacity="0.97"/>
<path d="M-75.0,-20.6 L-56.2,-13.7 L-75.0,-4.8 L-93.8,-10.3 Z" fill="#461264" fill-opacity="0.97"/>
<path d="M0.0,-12.9 L18.8,-13.3 L0.0,-14.2 L-18.8,-9.1 Z" fill="#404285" fill-opacity="0.97"/>
<path d="M-18.8,-16.8 L0.0,-12.9 L-18.8,-9.1 L-37.5,-9.2 Z" fill="#482979" fill-opacity="0.97"/>
<path d="M112.5,-16.9 L131.2,-9.6 L112.5,-5.8 L93.8,-12.3 Z" fill="#450E60" fill-opacity="0.97"/>
<path d="M37.5,-29.2 L56.2,-8.2 L37.5,6.7 L18.8,-12.9 Z" fill="#64CA5E" fill-opacity="0.97"/>
<path d="M-18.8,-9.1 L0.0,-14.2 L-18.8,-13.1 L-37.5,-4.7 Z" fill="#3B518A" fill-opacity="0.97"/>
<path d="M93.8,-11.2 L112.5,3.6 L93.8,-6.5 L75.0,-24.4 Z" fill="#21978A" fill-opacity="0.97"/>
<path d="M75.0,-10.2 L93.8,-5.7 L75.0,-10.6 L56.2,-11.8 Z" fill="#433980" fill-opacity="0.97"/>
<path d="M-112.5,-17.1 L-93.8,-10.3 L-112.5,-1.8 L-131.2,-8.3 Z" fill="#45085B" fill-opacity="0.97"/>
<path d="M93.8,-7.0 L112.5,0.7 L93.8,-11.2 L75.0,-19.2 Z" fill="#2C738E" fill-opacity="0.97"/>
<path d="M150.0,-15.4 L168.8,-8.1 L150.0,-2.4 L131.2,-9.6 Z" fill="#450659" fill-opacity="0.97"/>
<path d="M93.8,-12.3 L112.5,-5.8 L93.8,-5.7 L75.0,-10.2 Z" fill="#471E6F" fill-opacity="0.97"/>
<path d="M-37.5,-7.4 L-18.8,-21.0 L-37.5,-7.8 L-56.2,3.6 Z" fill="#26828E" fill-opacity="0.97"/>
<path d="M-150.0,-15.3 L-131.2,-8.3 L-150.0,-0.5 L-168.8,-7.5 Z" fill="#440356" fill-opacity="0.97"/>
<path d="M187.5,-14.7 L206.2,-7.5 L187.5,-0.8 L168.8,-8.1 Z" fill="#440356" fill-opacity="0.97"/>
<path d="M-18.8,-18.3 L0.0,-21.4 L-18.8,4.4 L-37.5,5.1 Z" fill="#33B57A" fill-opacity="0.97"/>
<path d="M-56.2,-13.7 L-37.5,-9.2 L-56.2,-2.3 L-75.0,-4.8 Z" fill="#471A6B" fill-opacity="0.97"/>
<path d="M-187.5,-14.7 L-168.8,-7.5 L-187.5,-0.1 L-206.2,-7.3 Z" fill="#440154" fill-opacity="0.97"/>
<path d="M225.0,-14.6 L243.8,-7.3 L225.0,-0.2 L206.2,-7.5 Z" fill="#440154" fill-opacity="0.97"/>
<path d="M262.5,-14.5 L281.2,-7.3 L262.5,-0.0 L243.8,-7.3 Z" fill="#440154" fill-opacity="0.97"/>
<path d="M-225.0,-14.5 L-206.2,-7.3 L-225.0,-0.0 L-243.8,-7.3 Z" fill="#440154" fill-opacity="0.97"/>
<path d="M-262.5,-14.5 L-243.8,-7.3 L-262.5,-0.0 L-281.2,-7.3 Z" fill="#440154" fill-opacity="0.97"/>
<path d="M-37.5,-9.2 L-18.8,-9.1 L-37.5,-4.7 L-56.2,-2.3 Z" fill="#462F7B" fill-opacity="0.97"/>
<path d="M93.8,-5.7 L112.5,-0.2 L93.8,-7.0 L75.0,-10.6 Z" fill="#404486" fill-opacity="0.97"/>
<path d="M-37.5,-4.7 L-18.8,-13.1 L-37.5,-7.4 L-56.2,1.9 Z" fill="#38588B" fill-opacity="0.97"/>
<path d="M0.0,-21.4 L18.8,-12.9 L0.0,12.5 L-18.8,4.4 Z" fill="#44BD70" fill-opacity="0.97"/>
<path d="M131.2,-9.6 L150.0,-2.4 L131.2,0.8 L112.5,-5.8 Z" fill="#450F61" fill-opacity="0.97"/>
<path d="M-93.8,-10.3 L-75.0,-4.8 L-93.8,3.2 L-112.5,-1.8 Z" fill="#450D5F" fill-opacity="0.97"/>
<path d="M112.5,-5.8 L131.2,0.8 L112.5,-0.2 L93.8,-5.7 Z" fill="#472373" fill-opacity="0.97"/>
<path d="M-37.5,-7.8 L-18.8,-18.3 L-37.5,5.1 L-56.2,11.4 Z" fill="#21978A" fill-opacity="0.97"/>
<path d="M168.8,-8.1 L187.5,-0.8 L168.8,4.9 L150.0,-2.4 Z" fill="#450659" fill-opacity="0.97"/>
<path d="M-131.2,-8.3 L-112.5,-1.8 L-131.2,6.0 L-150.0,-0.5 Z" fill="#440558" fill-opacity="0.97"/>
<path d="M206.2,-7.5 L225.0,-0.2 L206.2,6.6 L187.5,-0.8 Z" fill="#440355" fill-opacity="0.97"/>
<path d="M-168.8,-7.5 L-150.0,-0.5 L-168.8,7.0 L-187.5,-0.1 Z" fill="#440255" fill-opacity="0.97"/>
<path d="M243.8,-7.3 L262.5,-0.0 L243.8,7.1 L225.0,-0.2 Z" fill="#440154" fill-opacity="0.97"/>
<path d="M-206.2,-7.3 L-187.5,-0.1 L-206.2,7.2 L-225.0,-0.0 Z" fill="#440154" fill-opacity="0.97"/>
<path d="M281.2,-7.3 L300.0,-0.0 L281.2,7.2 L262.5,-0.0 Z" fill="#440154" fill-opacity="0.97"/>
<path d="M-56.2,-2.3 L-37.5,-4.7 L-56.2,1.9 L-75.0,5.1 Z" fill="#45327D" fill-opacity="0.97"/>
<path d="M-243.8,-7.3 L-225.0,-0.0 L-243.8,7.2 L-262.5,-0.0 Z" fill="#440154" fill-opacity="0.97"/>
<path d="M-281.2,-7.3 L-262.5,-0.0 L-281.2,7.2 L-300.0,-0.0 Z" fill="#440154" fill-opacity="0.97"/>
<path d="M112.5,-0.2 L131.2,7.3 L112.5,0.7 L93.8,-7.0 Z" fill="#3F4888" fill-opacity="0.97"/>
<path d="M-75.0,-4.8 L-56.2,-2.3 L-75.0,5.1 L-93.8,3.2 Z" fill="#46196A" fill-opacity="0.97"/>
<path d="M112.5,0.7 L131.2,12.4 L112.5,3.6 L93.8,-11.2 Z" fill="#306B8E" fill-opacity="0.97"/>
<path d="M-56.2,1.9 L-37.5,-7.4 L-56.2,3.6 L-75.0,11.3 Z" fill="#39568B" fill-opacity="0.97"/>
<path d="M150.0,-2.4 L168.8,4.9 L150.0,8.2 L131.2,0.8 Z" fill="#461062" fill-opacity="0.97"/>
<path d="M93.8,-6.5 L112.5,16.8 L93.8,14.8 L75.0,-12.1 Z" fill="#209B89" fill-opacity="0.97"/>
<path d="M75.0,-12.1 L93.8,14.8 L75.0,19.6 L56.2,-8.2 Z" fill="#2BAC80" fill-opacity="0.97"/>
<path d="M131.2,0.8 L150.0,8.2 L131.2,7.3 L112.5,-0.2 Z" fill="#482575" fill-opacity="0.97"/>
<path d="M-112.5,-1.8 L-93.8,3.2 L-112.5,11.1 L-131.2,6.0 Z" fill="#450A5C" fill-opacity="0.97"/>
<path d="M187.5,-0.8 L206.2,6.6 L187.5,12.5 L168.8,4.9 Z" fill="#440658" fill-opacity="0.97"/>
<path d="M-56.2,3.6 L-37.5,-7.8 L-56.2,11.4 L-75.0,18.5 Z" fill="#2E708E" fill-opacity="0.97"/>
<path d="M-150.0,-0.5 L-131.2,6.0 L-150.0,13.6 L-168.8,7.0 Z" fill="#440356" fill-opacity="0.97"/>
<path d="M225.0,-0.2 L243.8,7.1 L225.0,14.0 L206.2,6.6 Z" fill="#440255" fill-opacity="0.97"/>
<path d="M-187.5,-0.1 L-168.8,7.0 L-187.5,14.3 L-206.2,7.2 Z" fill="#440254" fill-opacity="0.97"/>
<path d="M262.5,-0.0 L281.2,7.2 L262.5,14.4 L243.8,7.1 Z" fill="#440154" fill-opacity="0.97"/>
<path d="M-225.0,-0.0 L-206.2,7.2 L-225.0,14.5 L-243.8,7.2 Z" fill="#440154" fill-opacity="0.97"/>
<path d="M-262.5,-0.0 L-243.8,7.2 L-262.5,14.5 L-281.2,7.2 Z" fill="#440154" fill-opacity="0.97"/>
<path d="M-75.0,5.1 L-56.2,1.9 L-75.0,11.3 L-93.8,13.5 Z" fill="#462F7C" fill-opacity="0.97"/>
<path d="M-93.8,3.2 L-75.0,5.1 L-93.8,13.5 L-112.5,11.1 Z" fill="#461668" fill-opacity="0.97"/>
<path d="M18.8,-12.9 L37.5,6.7 L18.8,29.3 L0.0,12.5 Z" fill="#2FB07D" fill-opacity="0.97"/>
<path d="M112.5,3.6 L131.2,22.0 L112.5,16.8 L93.8,-6.5 Z" fill="#297C8E" fill-opacity="0.97"/>
<path d="M131.2,7.3 L150.0,16.8 L131.2,12.4 L112.5,0.7 Z" fill="#404285" fill-opacity="0.97"/>
<path d="M168.8,4.9 L187.5,12.5 L168.8,16.4 L150.0,8.2 Z" fill="#450F61" fill-opacity="0.97"/>
<path d="M150.0,8.2 L168.8,16.4 L150.0,16.8 L131.2,7.3 Z" fill="#472172" fill-opacity="0.97"/>
<path d="M-131.2,6.0 L-112.5,11.1 L-131.2,19.2 L-150.0,13.6 Z" fill="#45085A" fill-opacity="0.97"/>
<path d="M56.2,-8.2 L75.0,19.6 L56.2,32.3 L37.5,6.7 Z" fill="#27A883" fill-opacity="0.97"/>
<path d="M206.2,6.6 L225.0,14.0 L206.2,20.3 L187.5,12.5 Z" fill="#440558" fill-opacity="0.97"/>
<path d="M-75.0,11.3 L-56.2,3.6 L-75.0,18.5 L-93.8,22.7 Z" fill="#3E4A89" fill-opacity="0.97"/>
<path d="M-168.8,7.0 L-150.0,13.6 L-168.8,21.2 L-187.5,14.3 Z" fill="#440355" fill-opacity="0.97"/>
<path d="M243.8,7.1 L262.5,14.4 L243.8,21.5 L225.0,14.0 Z" fill="#440255" fill-opacity="0.97"/>
<path d="M-206.2,7.2 L-187.5,14.3 L-206.2,21.7 L-225.0,14.5 Z" fill="#440154" fill-opacity="0.97"/>
<path d="M-243.8,7.2 L-225.0,14.5 L-243.8,21.7 L-262.5,14.5 Z" fill="#440154" fill-opacity="0.97"/>
<path d="M131.2,12.4 L150.0,26.3 L131.2,22.0 L112.5,3.6 Z" fill="#38588B" fill-opacity="0.97"/>
<path d="M-112.5,11.1 L-93.8,13.5 L-112.5,22.7 L-131.2,19.2 Z" fill="#461264" fill-opacity="0.97"/>
<path d="M-93.8,13.5 L-75.0,11.3 L-93.8,22.7 L-112.5,22.7 Z" fill="#482878" fill-opacity="0.97"/>
<path d="M-37.5,5.1 L-18.8,4.4 L-37.5,32.6 L-56.2,30.6 Z" fill="#24898D" fill-opacity="0.97"/>
<path d="M187.5,12.5 L206.2,20.3 L187.5,25.2 L168.8,16.4 Z" fill="#450C5E" fill-opacity="0.97"/>
<path d="M-56.2,11.4 L-37.5,5.1 L-56.2,30.6 L-75.0,32.2 Z" fill="#2C738E" fill-opacity="0.97"/>
<path d="M-150.0,13.6 L-131.2,19.2 L-150.0,27.3 L-168.8,21.2 Z" fill="#440658" fill-opacity="0.97"/>
<path d="M150.0,16.8 L168.8,27.5 L150.0,26.3 L131.2,12.4 Z" fill="#44357E" fill-opacity="0.97"/>
<path d="M225.0,14.0 L243.8,21.5 L225.0,28.1 L206.2,20.3 Z" fill="#440456" fill-opacity="0.97"/>
<path d="M-187.5,14.3 L-168.8,21.2 L-187.5,28.7 L-206.2,21.7 Z" fill="#440255" fill-opacity="0.97"/>
<path d="M168.8,16.4 L187.5,25.2 L168.8,27.5 L150.0,16.8 Z" fill="#471A6C" fill-opacity="0.97"/>
<path d="M-225.0,14.5 L-206.2,21.7 L-225.0,29.0 L-243.8,21.7 Z" fill="#440154" fill-opacity="0.97"/>
<path d="M-18.8,4.4 L0.0,12.5 L-18.8,40.4 L-37.5,32.6 Z" fill="#23908C" fill-opacity="0.97"/>
<path d="M-75.0,18.5 L-56.2,11.4 L-75.0,32.2 L-93.8,34.4 Z" fill="#39568B" fill-opacity="0.97"/>
<path d="M-131.2,19.2 L-112.5,22.7 L-131.2,32.1 L-150.0,27.3 Z" fill="#450D5F" fill-opacity="0.97"/>
<path d="M206.2,20.3 L225.0,28.1 L206.2,33.9 L187.5,25.2 Z" fill="#45085B" fill-opacity="0.97"/>
<path d="M-93.8,22.7 L-75.0,18.5 L-93.8,34.4 L-112.5,34.6 Z" fill="#44367F" fill-opacity="0.97"/>
<path d="M-112.5,22.7 L-93.8,22.7 L-112.5,34.6 L-131.2,32.1 Z" fill="#471D6E" fill-opacity="0.97"/>
<path d="M-168.8,21.2 L-150.0,27.3 L-168.8,35.3 L-187.5,28.7 Z" fill="#440457" fill-opacity="0.97"/>
<path d="M112.5,16.8 L131.2,39.9 L112.5,41.4 L93.8,14.8 Z" fill="#2E708E" fill-opacity="0.97"/>
<path d="M-206.2,21.7 L-187.5,28.7 L-206.2,36.1 L-225.0,29.0 Z" fill="#440254" fill-opacity="0.97"/>
<path d="M37.5,6.7 L56.2,32.3 L37.5,50.6 L18.8,29.3 Z" fill="#23908C" fill-opacity="0.97"/>
<path d="M131.2,22.0 L150.0,40.3 L131.2,39.9 L112.5,16.8 Z" fill="#375A8C" fill-opacity="0.97"/>
<path d="M93.8,14.8 L112.5,41.4 L93.8,47.2 L75.0,19.6 Z" fill="#297C8E" fill-opacity="0.97"/>
<path d="M187.5,25.2 L206.2,33.9 L187.5,38.1 L168.8,27.5 Z" fill="#461264" fill-opacity="0.97"/>
<path d="M150.0,26.3 L168.8,40.2 L150.0,40.3 L131.2,22.0 Z" fill="#413F83" fill-opacity="0.97"/>
<path d="M168.8,27.5 L187.5,38.1 L168.8,40.2 L150.0,26.3 Z" fill="#482475" fill-opacity="0.97"/>
<path d="M-150.0,27.3 L-131.2,32.1 L-150.0,41.2 L-168.8,35.3 Z" fill="#45095B" fill-opacity="0.97"/>
<path d="M0.0,12.5 L18.8,29.3 L0.0,53.9 L-18.8,40.4 Z" fill="#25858D" fill-opacity="0.97"/>
<path d="M-187.5,28.7 L-168.8,35.3 L-187.5,43.1 L-206.2,36.1 Z" fill="#440355" fill-opacity="0.97"/>
<path d="M-131.2,32.1 L-112.5,34.6 L-131.2,45.8 L-150.0,41.2 Z" fill="#461264" fill-opacity="0.97"/>
<path d="M75.0,19.6 L93.8,47.2 L75.0,57.8 L56.2,32.3 Z" fill="#2A798E" fill-opacity="0.97"/>
<path d="M-112.5,34.6 L-93.8,34.4 L-112.5,48.8 L-131.2,45.8 Z" fill="#472273" fill-opacity="0.97"/>
<path d="M-93.8,34.4 L-75.0,32.2 L-93.8,50.8 L-112.5,48.8 Z" fill="#433880" fill-opacity="0.97"/>
<path d="M-75.0,32.2 L-56.2,30.6 L-75.0,53.0 L-93.8,50.8 Z" fill="#3C4E8A" fill-opacity="0.97"/>
<path d="M-168.8,35.3 L-150.0,41.2 L-168.8,49.6 L-187.5,43.1 Z" fill="#440558" fill-opacity="0.97"/>
<path d="M-56.2,30.6 L-37.5,32.6 L-56.2,57.3 L-75.0,53.0 Z" fill="#365C8C" fill-opacity="0.97"/>
<path d="M-150.0,41.2 L-131.2,45.8 L-150.0,55.6 L-168.8,49.6 Z" fill="#450A5C" fill-opacity="0.97"/>
<path d="M-37.5,32.6 L-18.8,40.4 L-37.5,64.9 L-56.2,57.3 Z" fill="#34618D" fill-opacity="0.97"/>
<path d="M18.8,29.3 L37.5,50.6 L18.8,70.4 L0.0,53.9 Z" fill="#2F6E8E" fill-opacity="0.97"/>
<path d="M-131.2,45.8 L-112.5,48.8 L-131.2,60.8 L-150.0,55.6 Z" fill="#461364" fill-opacity="0.97"/>
<path d="M56.2,32.3 L75.0,57.8 L56.2,71.8 L37.5,50.6 Z" fill="#31688E" fill-opacity="0.97"/>
<path d="M-112.5,48.8 L-93.8,50.8 L-112.5,65.6 L-131.2,60.8 Z" fill="#471F6F" fill-opacity="0.97"/>
<path d="M-18.8,40.4 L0.0,53.9 L-18.8,75.7 L-37.5,64.9 Z" fill="#375A8C" fill-opacity="0.97"/>
<path d="M-93.8,50.8 L-75.0,53.0 L-93.8,70.4 L-112.5,65.6 Z" fill="#472B7A" fill-opacity="0.97"/>
<path d="M-75.0,53.0 L-56.2,57.3 L-75.0,76.3 L-93.8,70.4 Z" fill="#44357E" fill-opacity="0.97"/>
<path d="M37.5,50.6 L56.2,71.8 L37.5,86.8 L18.8,70.4 Z" fill="#3C508A" fill-opacity="0.97"/>
<path d="M-56.2,57.3 L-37.5,64.9 L-56.2,83.7 L-75.0,76.3 Z" fill="#433880" fill-opacity="0.97"/>
<path d="M0.0,53.9 L18.8,70.4 L0.0,88.1 L-18.8,75.7 Z" fill="#3E4A89" fill-opacity="0.97"/>
<path d="M-37.5,64.9 L-18.8,75.7 L-37.5,92.6 L-56.2,83.7 Z" fill="#45337E" fill-opacity="0.97"/>
<path d="M18.8,70.4 L37.5,86.8 L18.8,100.5 L0.0,88.1 Z" fill="#45337E" fill-opacity="0.97"/>
<path d="M-18.8,75.7 L0.0,88.1 L-18.8,102.3 L-37.5,92.6 Z" fill="#482978" fill-opacity="0.97"/>
<path d="M0.0,88.1 L18.8,100.5 L0.0,112.0 L-18.8,102.3 Z" fill="#471C6D" fill-opacity="0.97"/>
</g>
<g stroke="#7DD3FC" stroke-opacity="0.42" stroke-width="0.5" fill="none" stroke-linejoin="round">
<path d="M0.0,-143.5 L-18.8,-137.3 L-37.5,-132.2 L-56.2,-127.4 L-75.0,-121.3 L-93.8,-113.0 L-112.5,-102.6 L-131.2,-90.1 L-150.0,-77.8 L-168.8,-66.8 L-187.5,-56.9 L-206.2,-48.0 L-225.0,-39.8 L-243.8,-32.4 L-262.5,-25.5 L-281.2,-19.3 L-300.0,-13.3"/>
<path d="M18.8,-136.7 L0.0,-132.4 L-18.8,-130.0 L-37.5,-128.1 L-56.2,-123.8 L-75.0,-115.1 L-93.8,-102.5 L-112.5,-88.0 L-131.2,-72.9 L-150.0,-59.9 L-168.8,-48.9 L-187.5,-39.3 L-206.2,-30.7 L-225.0,-23.1 L-243.8,-16.5 L-262.5,-10.5 L-281.2,-4.8"/>
<path d="M37.5,-130.2 L18.8,-128.0 L0.0,-128.7 L-18.8,-130.0 L-37.5,-127.6 L-56.2,-118.6 L-75.0,-103.4 L-93.8,-85.6 L-112.5,-68.7 L-131.2,-53.5 L-150.0,-41.3 L-168.8,-31.0 L-187.5,-21.8 L-206.2,-13.9 L-225.0,-7.7 L-243.8,-2.1 L-262.5,3.3"/>
<path d="M56.2,-123.3 L37.5,-122.6 L18.8,-125.5 L0.0,-128.9 L-18.8,-127.9 L-37.5,-118.5 L-56.2,-101.5 L-75.0,-81.2 L-93.8,-62.7 L-112.5,-47.2 L-131.2,-34.2 L-150.0,-23.4 L-168.8,-13.6 L-187.5,-5.0 L-206.2,0.3 L-225.0,5.6 L-243.8,10.8"/>
<path d="M75.0,-115.3 L56.2,-114.7 L37.5,-117.7 L18.8,-121.2 L0.0,-120.1 L-18.8,-110.6 L-37.5,-93.2 L-56.2,-72.6 L-75.0,-53.9 L-93.8,-39.7 L-112.5,-27.5 L-131.2,-16.9 L-150.0,-7.5 L-168.8,0.5 L-187.5,6.8 L-206.2,12.4 L-225.0,17.8"/>
<path d="M93.8,-106.2 L75.0,-104.1 L56.2,-105.1 L37.5,-106.5 L18.8,-104.0 L0.0,-94.4 L-18.8,-78.2 L-37.5,-59.6 L-56.2,-42.9 L-75.0,-30.4 L-93.8,-21.4 L-112.5,-11.6 L-131.2,-2.7 L-150.0,5.2 L-168.8,12.1 L-187.5,18.3 L-206.2,24.1"/>
<path d="M112.5,-96.4 L93.8,-92.3 L75.0,-90.0 L56.2,-88.1 L37.5,-83.5 L18.8,-74.0 L0.0,-60.1 L-18.8,-44.7 L-37.5,-31.5 L-56.2,-21.9 L-75.0,-14.7 L-93.8,-8.2 L-112.5,0.5 L-131.2,8.8 L-150.0,16.5 L-168.8,23.4 L-187.5,29.8"/>
<path d="M131.2,-85.5 L112.5,-80.1 L93.8,-75.6 L75.0,-70.5 L56.2,-64.0 L37.5,-54.8 L18.8,-43.5 L0.0,-31.5 L-18.8,-22.2 L-37.5,-16.5 L-56.2,-11.6 L-75.0,-6.2 L-93.8,2.5 L-112.5,11.5 L-131.2,20.2 L-150.0,28.1 L-168.8,35.1"/>
<path d="M150.0,-75.4 L131.2,-68.3 L112.5,-62.1 L93.8,-56.4 L75.0,-48.8 L56.2,-40.3 L37.5,-31.7 L18.8,-24.0 L0.0,-19.1 L-18.8,-16.8 L-37.5,-14.3 L-56.2,-7.7 L-75.0,2.3 L-93.8,13.4 L-112.5,24.3 L-131.2,34.0 L-150.0,42.2"/>
<path d="M168.8,-65.9 L150.0,-57.9 L131.2,-50.4 L112.5,-43.6 L93.8,-37.4 L75.0,-30.7 L56.2,-24.8 L37.5,-21.6 L18.8,-21.5 L0.0,-23.2 L-18.8,-22.6 L-37.5,-15.3 L-56.2,-3.4 L-75.0,11.0 L-93.8,25.4 L-112.5,38.1 L-131.2,48.3"/>
<path d="M187.5,-57.1 L168.8,-48.5 L150.0,-40.3 L131.2,-32.9 L112.5,-26.8 L93.8,-22.7 L75.0,-21.1 L56.2,-22.0 L37.5,-26.2 L18.8,-31.1 L0.0,-33.5 L-18.8,-27.8 L-37.5,-12.9 L-56.2,5.2 L-75.0,24.0 L-93.8,40.6 L-112.5,53.4"/>
<path d="M206.2,-48.7 L187.5,-39.8 L168.8,-31.1 L150.0,-23.4 L131.2,-17.4 L112.5,-14.6 L93.8,-16.0 L75.0,-20.8 L56.2,-28.4 L37.5,-37.5 L18.8,-43.2 L0.0,-40.8 L-18.8,-24.3 L-37.5,-1.7 L-56.2,22.1 L-75.0,42.7 L-93.8,58.1"/>
<path d="M225.0,-40.8 L206.2,-31.7 L187.5,-22.7 L168.8,-14.3 L150.0,-8.5 L131.2,-6.8 L112.5,-9.7 L93.8,-17.1 L75.0,-27.3 L56.2,-38.9 L37.5,-46.3 L18.8,-43.2 L0.0,-28.5 L-18.8,-4.0 L-37.5,23.0 L-56.2,46.2 L-75.0,63.3"/>
<path d="M243.8,-33.5 L225.0,-24.3 L206.2,-15.2 L187.5,-6.7 L168.8,-0.7 L150.0,0.8 L131.2,-2.1 L112.5,-9.9 L93.8,-20.1 L75.0,-32.0 L56.2,-39.0 L37.5,-35.0 L18.8,-20.1 L0.0,3.5 L-18.8,29.4 L-37.5,52.5 L-56.2,69.7"/>
<path d="M262.5,-26.7 L243.8,-17.7 L225.0,-8.9 L206.2,-0.9 L187.5,5.2 L168.8,8.0 L150.0,6.8 L131.2,0.7 L112.5,-6.8 L93.8,-15.8 L75.0,-20.2 L56.2,-15.9 L37.5,-1.8 L18.8,19.3 L0.0,42.2 L-18.8,62.2 L-37.5,77.3"/>
<path d="M281.2,-20.4 L262.5,-11.6 L243.8,-3.1 L225.0,4.7 L206.2,11.0 L187.5,15.2 L168.8,16.2 L150.0,13.5 L131.2,10.0 L112.5,6.0 L93.8,4.8 L75.0,9.9 L56.2,22.1 L37.5,39.3 L18.8,57.7 L0.0,73.7 L-18.8,86.2"/>
<path d="M300.0,-14.4 L281.2,-5.8 L262.5,2.5 L243.8,10.1 L225.0,16.9 L206.2,22.1 L187.5,25.3 L168.8,26.1 L150.0,26.7 L131.2,27.3 L112.5,29.5 L93.8,35.4 L75.0,45.7 L56.2,58.9 L37.5,72.7 L18.8,84.9 L0.0,94.9"/>
<path d="M0.0,-143.5 L18.8,-136.7 L37.5,-130.2 L56.2,-123.3 L75.0,-115.3 L93.8,-106.2 L112.5,-96.4 L131.2,-85.5 L150.0,-75.4 L168.8,-65.9 L187.5,-57.1 L206.2,-48.7 L225.0,-40.8 L243.8,-33.5 L262.5,-26.7 L281.2,-20.4 L300.0,-14.4"/>
<path d="M-18.8,-137.3 L0.0,-132.4 L18.8,-128.0 L37.5,-122.6 L56.2,-114.7 L75.0,-104.1 L93.8,-92.3 L112.5,-80.1 L131.2,-68.3 L150.0,-57.9 L168.8,-48.5 L187.5,-39.8 L206.2,-31.7 L225.0,-24.3 L243.8,-17.7 L262.5,-11.6 L281.2,-5.8"/>
<path d="M-37.5,-132.2 L-18.8,-130.0 L0.0,-128.7 L18.8,-125.5 L37.5,-117.7 L56.2,-105.1 L75.0,-90.0 L93.8,-75.6 L112.5,-62.1 L131.2,-50.4 L150.0,-40.3 L168.8,-31.1 L187.5,-22.7 L206.2,-15.2 L225.0,-8.9 L243.8,-3.1 L262.5,2.5"/>
<path d="M-56.2,-127.4 L-37.5,-128.1 L-18.8,-130.0 L0.0,-128.9 L18.8,-121.2 L37.5,-106.5 L56.2,-88.1 L75.0,-70.5 L93.8,-56.4 L112.5,-43.6 L131.2,-32.9 L150.0,-23.4 L168.8,-14.3 L187.5,-6.7 L206.2,-0.9 L225.0,4.7 L243.8,10.1"/>
<path d="M-75.0,-121.3 L-56.2,-123.8 L-37.5,-127.6 L-18.8,-127.9 L0.0,-120.1 L18.8,-104.0 L37.5,-83.5 L56.2,-64.0 L75.0,-48.8 L93.8,-37.4 L112.5,-26.8 L131.2,-17.4 L150.0,-8.5 L168.8,-0.7 L187.5,5.2 L206.2,11.0 L225.0,16.9"/>
<path d="M-93.8,-113.0 L-75.0,-115.1 L-56.2,-118.6 L-37.5,-118.5 L-18.8,-110.6 L0.0,-94.4 L18.8,-74.0 L37.5,-54.8 L56.2,-40.3 L75.0,-30.7 L93.8,-22.7 L112.5,-14.6 L131.2,-6.8 L150.0,0.8 L168.8,8.0 L187.5,15.2 L206.2,22.1"/>
<path d="M-112.5,-102.6 L-93.8,-102.5 L-75.0,-103.4 L-56.2,-101.5 L-37.5,-93.2 L-18.8,-78.2 L0.0,-60.1 L18.8,-43.5 L37.5,-31.7 L56.2,-24.8 L75.0,-21.1 L93.8,-16.0 L112.5,-9.7 L131.2,-2.1 L150.0,6.8 L168.8,16.2 L187.5,25.3"/>
<path d="M-131.2,-90.1 L-112.5,-88.0 L-93.8,-85.6 L-75.0,-81.2 L-56.2,-72.6 L-37.5,-59.6 L-18.8,-44.7 L0.0,-31.5 L18.8,-24.0 L37.5,-21.6 L56.2,-22.0 L75.0,-20.8 L93.8,-17.1 L112.5,-9.9 L131.2,0.7 L150.0,13.5 L168.8,26.1"/>
<path d="M-150.0,-77.8 L-131.2,-72.9 L-112.5,-68.7 L-93.8,-62.7 L-75.0,-53.9 L-56.2,-42.9 L-37.5,-31.5 L-18.8,-22.2 L0.0,-19.1 L18.8,-21.5 L37.5,-26.2 L56.2,-28.4 L75.0,-27.3 L93.8,-20.1 L112.5,-6.8 L131.2,10.0 L150.0,26.7"/>
<path d="M-168.8,-66.8 L-150.0,-59.9 L-131.2,-53.5 L-112.5,-47.2 L-93.8,-39.7 L-75.0,-30.4 L-56.2,-21.9 L-37.5,-16.5 L-18.8,-16.8 L0.0,-23.2 L18.8,-31.1 L37.5,-37.5 L56.2,-38.9 L75.0,-32.0 L93.8,-15.8 L112.5,6.0 L131.2,27.3"/>
<path d="M-187.5,-56.9 L-168.8,-48.9 L-150.0,-41.3 L-131.2,-34.2 L-112.5,-27.5 L-93.8,-21.4 L-75.0,-14.7 L-56.2,-11.6 L-37.5,-14.3 L-18.8,-22.6 L0.0,-33.5 L18.8,-43.2 L37.5,-46.3 L56.2,-39.0 L75.0,-20.2 L93.8,4.8 L112.5,29.5"/>
<path d="M-206.2,-48.0 L-187.5,-39.3 L-168.8,-31.0 L-150.0,-23.4 L-131.2,-16.9 L-112.5,-11.6 L-93.8,-8.2 L-75.0,-6.2 L-56.2,-7.7 L-37.5,-15.3 L-18.8,-27.8 L0.0,-40.8 L18.8,-43.2 L37.5,-35.0 L56.2,-15.9 L75.0,9.9 L93.8,35.4"/>
<path d="M-225.0,-39.8 L-206.2,-30.7 L-187.5,-21.8 L-168.8,-13.6 L-150.0,-7.5 L-131.2,-2.7 L-112.5,0.5 L-93.8,2.5 L-75.0,2.3 L-56.2,-3.4 L-37.5,-12.9 L-18.8,-24.3 L0.0,-28.5 L18.8,-20.1 L37.5,-1.8 L56.2,22.1 L75.0,45.7"/>
<path d="M-243.8,-32.4 L-225.0,-23.1 L-206.2,-13.9 L-187.5,-5.0 L-168.8,0.5 L-150.0,5.2 L-131.2,8.8 L-112.5,11.5 L-93.8,13.4 L-75.0,11.0 L-56.2,5.2 L-37.5,-1.7 L-18.8,-4.0 L0.0,3.5 L18.8,19.3 L37.5,39.3 L56.2,58.9"/>
<path d="M-262.5,-25.5 L-243.8,-16.5 L-225.0,-7.7 L-206.2,0.3 L-187.5,6.8 L-168.8,12.1 L-150.0,16.5 L-131.2,20.2 L-112.5,24.3 L-93.8,25.4 L-75.0,24.0 L-56.2,22.1 L-37.5,23.0 L-18.8,29.4 L0.0,42.2 L18.8,57.7 L37.5,72.7"/>
<path d="M-281.2,-19.3 L-262.5,-10.5 L-243.8,-2.1 L-225.0,5.6 L-206.2,12.4 L-187.5,18.3 L-168.8,23.4 L-150.0,28.1 L-131.2,34.0 L-112.5,38.1 L-93.8,40.6 L-75.0,42.7 L-56.2,46.2 L-37.5,52.5 L-18.8,62.2 L0.0,73.7 L18.8,84.9"/>
<path d="M-300.0,-13.3 L-281.2,-4.8 L-262.5,3.3 L-243.8,10.8 L-225.0,17.8 L-206.2,24.1 L-187.5,29.8 L-168.8,35.1 L-150.0,42.2 L-131.2,48.3 L-112.5,53.4 L-93.8,58.1 L-75.0,63.3 L-56.2,69.7 L-37.5,77.3 L-18.8,86.2 L0.0,94.9"/>
</g>
<line x1="0.0" y1="-116.0" x2="0.0" y2="-213.5" stroke="#64748B" stroke-width="1.2" marker-end="url(#ah)"/>
<path d="M-183.0,-5.8 L169.5,-4.3 L-7.5,-23.2 L-36.0,-12.2 L36.0,-44.5 L30.0,-42.3" stroke="#F8FAFC" stroke-opacity="0.7" stroke-width="1.5" stroke-dasharray="646.4" stroke-dashoffset="646.4" stroke-linecap="round" stroke-linejoin="round"><animate attributeName="stroke-dashoffset" dur="9s" repeatCount="indefinite" keyTimes="0;0.12;0.72;0.92;1" values="646.4;646.4;0;0;646.4"/></path>
<circle cx="-183.0" cy="-5.8" fill="#E11D48" stroke="#F8FAFC" stroke-width="1.1" filter="url(#g)"><animate attributeName="r" dur="9s" repeatCount="indefinite" keyTimes="0;0.100;0.120;0.92;1" values="0;0;4.2;4.2;0"/><animate attributeName="opacity" dur="9s" repeatCount="indefinite" keyTimes="0;0.100;0.120;0.92;1" values="0;0;1;1;0"/></circle>
<circle cx="169.5" cy="-4.3" fill="#E11D48" stroke="#F8FAFC" stroke-width="1.1" filter="url(#g)"><animate attributeName="r" dur="9s" repeatCount="indefinite" keyTimes="0;0.220;0.240;0.92;1" values="0;0;4.2;4.2;0"/><animate attributeName="opacity" dur="9s" repeatCount="indefinite" keyTimes="0;0.220;0.240;0.92;1" values="0;0;1;1;0"/></circle>
<circle cx="-7.5" cy="-23.2" fill="#E11D48" stroke="#F8FAFC" stroke-width="1.1" filter="url(#g)"><animate attributeName="r" dur="9s" repeatCount="indefinite" keyTimes="0;0.340;0.360;0.92;1" values="0;0;4.2;4.2;0"/><animate attributeName="opacity" dur="9s" repeatCount="indefinite" keyTimes="0;0.340;0.360;0.92;1" values="0;0;1;1;0"/></circle>
<circle cx="-36.0" cy="-12.2" fill="#E11D48" stroke="#F8FAFC" stroke-width="1.1" filter="url(#g)"><animate attributeName="r" dur="9s" repeatCount="indefinite" keyTimes="0;0.460;0.480;0.92;1" values="0;0;4.2;4.2;0"/><animate attributeName="opacity" dur="9s" repeatCount="indefinite" keyTimes="0;0.460;0.480;0.92;1" values="0;0;1;1;0"/></circle>
<circle cx="36.0" cy="-44.5" fill="#E11D48" stroke="#F8FAFC" stroke-width="1.1" filter="url(#g)"><animate attributeName="r" dur="9s" repeatCount="indefinite" keyTimes="0;0.580;0.600;0.92;1" values="0;0;4.2;4.2;0"/><animate attributeName="opacity" dur="9s" repeatCount="indefinite" keyTimes="0;0.580;0.600;0.92;1" values="0;0;1;1;0"/></circle>
<circle cx="30.0" cy="-42.3" fill="#FDE725" stroke="#F8FAFC" stroke-width="1.1" filter="url(#g)"><animate attributeName="r" dur="9s" repeatCount="indefinite" keyTimes="0;0.700;0.720;0.92;1" values="0;0;6.5;6.5;0"/><animate attributeName="opacity" dur="9s" repeatCount="indefinite" keyTimes="0;0.700;0.720;0.92;1" values="0;0;1;1;0"/></circle>
<circle cx="30.0" cy="-42.3" fill="none" stroke="#FDE725" stroke-width="2"><animate attributeName="r" dur="9s" repeatCount="indefinite" keyTimes="0;0.72;0.85;0.92;1" values="8;8;28;28;28"/><animate attributeName="opacity" dur="9s" repeatCount="indefinite" keyTimes="0;0.72;0.85;0.92;1" values="0;0.9;0;0;0"/></circle>
<text x="-318" y="-237" font-family="Georgia, 'Times New Roman', serif" font-size="14" fill="#CBD5E1">Bayesian optimization &#183; GP surrogate (mean &#177; &#963;)</text>
<text x="8" y="-209" font-family="Georgia, 'Times New Roman', serif" font-style="italic" font-size="14" fill="#94A3B8">f(x&#8321;,x&#8322;)</text>
<text x="159" y="73" font-family="Georgia, 'Times New Roman', serif" font-style="italic" font-size="13" fill="#94A3B8">x&#8321;</text>
<text x="-169" y="73" font-family="Georgia, 'Times New Roman', serif" font-style="italic" font-size="13" fill="#94A3B8">x&#8322;</text>
<text x="30.0" y="-58.3" text-anchor="middle" font-family="Georgia, 'Times New Roman', serif" font-style="italic" font-size="13" fill="#FDE725">x*</text>
</svg>
